<svg id="Ebene_1" data-name="Ebene 1" xmlns="http://www.w3.org/2000/svg" viewBox="0 0 100 100"><path d="M50,35.43a25.39,25.39,0,0,1,14.81,4.75l3.31,2.37V28.82H63.93v5.9a29.62,29.62,0,0,0-27.86,0v-5.9H31.88V42.55l3.31-2.37A25.39,25.39,0,0,1,50,35.43ZM79.76,66.05V28.82H75.57l0,35.14a25.53,25.53,0,0,1-51.06,0l0-35.14H20.24L20.29,64a29.52,29.52,0,0,0,7.59,19.76L20.51,96.88A2.09,2.09,0,0,0,22.33,100H77.67a2.09,2.09,0,0,0,1.82-3.12L72.14,83.75a29.56,29.56,0,0,0,7.5-17.7ZM74.09,95.81H25.91l5.07-9a29.59,29.59,0,0,0,38,0ZM37.15,79h25.7a7.87,7.87,0,0,0,6.68-12h0L56.94,44.14l0,0,0-.07h0a7.89,7.89,0,0,0-13.78,0h0l0,.07,0,0L30.47,66.94h0a7.87,7.87,0,0,0,6.68,12Zm29.4-7.88a3.7,3.7,0,1,1-3.7-3.7A3.7,3.7,0,0,1,66.55,71.12ZM50,44.19a3.7,3.7,0,1,1-3.7,3.69A3.7,3.7,0,0,1,50,44.19Zm-6.6,8a7.87,7.87,0,0,0,13.2,0l6.1,11.05A7.88,7.88,0,0,0,55,71.12a7.79,7.79,0,0,0,.92,3.69H44.11A7.79,7.79,0,0,0,45,71.12a7.88,7.88,0,0,0-7.73-7.88ZM37.15,67.42a3.7,3.7,0,1,1-3.7,3.7A3.7,3.7,0,0,1,37.15,67.42Z"/></svg>